<mxfile host="app.diagrams.net" modified="2023-04-18T08:58:01.615Z" agent="Mozilla/5.0 (Macintosh; Intel Mac OS X 10_15_7) AppleWebKit/537.36 (KHTML, like Gecko) Chrome/112.0.0.0 Safari/537.36" etag="08r2gn35jjigijC9-cha" version="21.1.8" type="device">
  <diagram name="Page-1" id="jYvbmOS5bW0W3BtBcmS2">
    <mxGraphModel dx="1912" dy="-659" grid="1" gridSize="10" guides="1" tooltips="1" connect="1" arrows="1" fold="1" page="1" pageScale="1" pageWidth="1169" pageHeight="827" math="0" shadow="0">
      <root>
        <mxCell id="0" />
        <mxCell id="1" parent="0" />
        <mxCell id="w10MovmDUoHj3njt8c6F-8" value="" style="edgeStyle=orthogonalEdgeStyle;rounded=0;orthogonalLoop=1;jettySize=auto;html=1;" edge="1" parent="1" source="NeyOB8tiazFOnQ0roD5S-77" target="w10MovmDUoHj3njt8c6F-7">
          <mxGeometry relative="1" as="geometry" />
        </mxCell>
        <mxCell id="w10MovmDUoHj3njt8c6F-9" value="Yes" style="edgeLabel;html=1;align=center;verticalAlign=middle;resizable=0;points=[];" vertex="1" connectable="0" parent="w10MovmDUoHj3njt8c6F-8">
          <mxGeometry x="-0.1" y="2" relative="1" as="geometry">
            <mxPoint as="offset" />
          </mxGeometry>
        </mxCell>
        <mxCell id="w10MovmDUoHj3njt8c6F-59" value="No" style="edgeStyle=orthogonalEdgeStyle;rounded=0;orthogonalLoop=1;jettySize=auto;html=1;entryX=1;entryY=0.5;entryDx=0;entryDy=0;" edge="1" parent="1" source="NeyOB8tiazFOnQ0roD5S-77" target="w10MovmDUoHj3njt8c6F-45">
          <mxGeometry relative="1" as="geometry">
            <Array as="points">
              <mxPoint x="850" y="2360" />
              <mxPoint x="850" y="2815" />
            </Array>
          </mxGeometry>
        </mxCell>
        <mxCell id="NeyOB8tiazFOnQ0roD5S-77" value="Authorised In &lt;br&gt;ITMO Platform?" style="rhombus;whiteSpace=wrap;html=1;fontSize=14;" parent="1" vertex="1">
          <mxGeometry x="610" y="2320" width="180" height="80" as="geometry" />
        </mxCell>
        <mxCell id="w10MovmDUoHj3njt8c6F-2" style="edgeStyle=orthogonalEdgeStyle;rounded=0;orthogonalLoop=1;jettySize=auto;html=1;entryX=0.5;entryY=0;entryDx=0;entryDy=0;" edge="1" parent="1" source="w10MovmDUoHj3njt8c6F-1" target="NeyOB8tiazFOnQ0roD5S-72">
          <mxGeometry relative="1" as="geometry" />
        </mxCell>
        <mxCell id="w10MovmDUoHj3njt8c6F-1" value="" style="strokeWidth=2;html=1;shape=mxgraph.flowchart.start_2;whiteSpace=wrap;" vertex="1" parent="1">
          <mxGeometry x="385" y="1980" width="50" height="50" as="geometry" />
        </mxCell>
        <mxCell id="NeyOB8tiazFOnQ0roD5S-72" value="Get Project List&lt;br&gt;from ITMO" style="rounded=1;whiteSpace=wrap;html=1;fontSize=14;" parent="1" vertex="1">
          <mxGeometry x="345" y="2090" width="130" height="50" as="geometry" />
        </mxCell>
        <mxCell id="NeyOB8tiazFOnQ0roD5S-81" style="edgeStyle=orthogonalEdgeStyle;rounded=0;orthogonalLoop=1;jettySize=auto;html=1;" parent="1" source="NeyOB8tiazFOnQ0roD5S-72" target="NeyOB8tiazFOnQ0roD5S-76" edge="1">
          <mxGeometry relative="1" as="geometry" />
        </mxCell>
        <mxCell id="NeyOB8tiazFOnQ0roD5S-76" value="Get Project Details&lt;br&gt;from ITMO" style="rounded=1;whiteSpace=wrap;html=1;fontSize=14;" parent="1" vertex="1">
          <mxGeometry x="345" y="2200" width="130" height="50" as="geometry" />
        </mxCell>
        <mxCell id="NeyOB8tiazFOnQ0roD5S-107" style="edgeStyle=orthogonalEdgeStyle;rounded=0;orthogonalLoop=1;jettySize=auto;html=1;" parent="1" source="NeyOB8tiazFOnQ0roD5S-76" target="NeyOB8tiazFOnQ0roD5S-74" edge="1">
          <mxGeometry relative="1" as="geometry" />
        </mxCell>
        <mxCell id="w10MovmDUoHj3njt8c6F-3" style="edgeStyle=orthogonalEdgeStyle;rounded=0;orthogonalLoop=1;jettySize=auto;html=1;entryX=0;entryY=0.5;entryDx=0;entryDy=0;" edge="1" parent="1" source="NeyOB8tiazFOnQ0roD5S-74" target="NeyOB8tiazFOnQ0roD5S-77">
          <mxGeometry relative="1" as="geometry" />
        </mxCell>
        <mxCell id="w10MovmDUoHj3njt8c6F-4" value="No" style="edgeLabel;html=1;align=center;verticalAlign=middle;resizable=0;points=[];" vertex="1" connectable="0" parent="w10MovmDUoHj3njt8c6F-3">
          <mxGeometry x="0.0762" y="-3" relative="1" as="geometry">
            <mxPoint as="offset" />
          </mxGeometry>
        </mxCell>
        <mxCell id="w10MovmDUoHj3njt8c6F-34" value="Yes" style="edgeStyle=orthogonalEdgeStyle;rounded=0;orthogonalLoop=1;jettySize=auto;html=1;entryX=1;entryY=0.5;entryDx=0;entryDy=0;" edge="1" parent="1" source="NeyOB8tiazFOnQ0roD5S-74" target="w10MovmDUoHj3njt8c6F-18">
          <mxGeometry relative="1" as="geometry" />
        </mxCell>
        <mxCell id="NeyOB8tiazFOnQ0roD5S-74" value="project id exists &lt;br&gt;on Registry?" style="rhombus;whiteSpace=wrap;html=1;fontSize=14;" parent="1" vertex="1">
          <mxGeometry x="320" y="2320" width="180" height="80" as="geometry" />
        </mxCell>
        <mxCell id="w10MovmDUoHj3njt8c6F-13" value="" style="edgeStyle=orthogonalEdgeStyle;rounded=0;orthogonalLoop=1;jettySize=auto;html=1;" edge="1" parent="1" source="w10MovmDUoHj3njt8c6F-7" target="w10MovmDUoHj3njt8c6F-12">
          <mxGeometry relative="1" as="geometry" />
        </mxCell>
        <mxCell id="w10MovmDUoHj3njt8c6F-14" value="No" style="edgeLabel;html=1;align=center;verticalAlign=middle;resizable=0;points=[];" vertex="1" connectable="0" parent="w10MovmDUoHj3njt8c6F-13">
          <mxGeometry x="0.1417" y="2" relative="1" as="geometry">
            <mxPoint x="-1" as="offset" />
          </mxGeometry>
        </mxCell>
        <mxCell id="w10MovmDUoHj3njt8c6F-16" value="" style="edgeStyle=orthogonalEdgeStyle;rounded=0;orthogonalLoop=1;jettySize=auto;html=1;" edge="1" parent="1" source="w10MovmDUoHj3njt8c6F-7" target="w10MovmDUoHj3njt8c6F-15">
          <mxGeometry relative="1" as="geometry" />
        </mxCell>
        <mxCell id="w10MovmDUoHj3njt8c6F-17" value="Yes" style="edgeLabel;html=1;align=center;verticalAlign=middle;resizable=0;points=[];" vertex="1" connectable="0" parent="w10MovmDUoHj3njt8c6F-16">
          <mxGeometry x="-0.3837" y="2" relative="1" as="geometry">
            <mxPoint as="offset" />
          </mxGeometry>
        </mxCell>
        <mxCell id="w10MovmDUoHj3njt8c6F-7" value="Company exist &lt;br&gt;in Registry?" style="rhombus;whiteSpace=wrap;html=1;fontSize=14;" vertex="1" parent="1">
          <mxGeometry x="610" y="2480" width="180" height="80" as="geometry" />
        </mxCell>
        <mxCell id="w10MovmDUoHj3njt8c6F-58" style="edgeStyle=orthogonalEdgeStyle;rounded=0;orthogonalLoop=1;jettySize=auto;html=1;entryX=0;entryY=0.5;entryDx=0;entryDy=0;" edge="1" parent="1" source="w10MovmDUoHj3njt8c6F-12" target="w10MovmDUoHj3njt8c6F-15">
          <mxGeometry relative="1" as="geometry">
            <Array as="points">
              <mxPoint x="460" y="2695" />
            </Array>
          </mxGeometry>
        </mxCell>
        <mxCell id="w10MovmDUoHj3njt8c6F-12" value="Create Organisation with an Admin user" style="rounded=1;whiteSpace=wrap;html=1;fontSize=14;" vertex="1" parent="1">
          <mxGeometry x="380" y="2485" width="170" height="70" as="geometry" />
        </mxCell>
        <mxCell id="w10MovmDUoHj3njt8c6F-60" style="edgeStyle=orthogonalEdgeStyle;rounded=0;orthogonalLoop=1;jettySize=auto;html=1;entryX=0.5;entryY=0;entryDx=0;entryDy=0;" edge="1" parent="1" source="w10MovmDUoHj3njt8c6F-15" target="w10MovmDUoHj3njt8c6F-45">
          <mxGeometry relative="1" as="geometry" />
        </mxCell>
        <mxCell id="w10MovmDUoHj3njt8c6F-15" value="Create Unauthorised programme on Registry" style="rounded=1;whiteSpace=wrap;html=1;fontSize=14;" vertex="1" parent="1">
          <mxGeometry x="620" y="2650" width="160" height="90" as="geometry" />
        </mxCell>
        <mxCell id="w10MovmDUoHj3njt8c6F-32" value="" style="edgeStyle=orthogonalEdgeStyle;rounded=0;orthogonalLoop=1;jettySize=auto;html=1;" edge="1" parent="1" source="w10MovmDUoHj3njt8c6F-18" target="w10MovmDUoHj3njt8c6F-31">
          <mxGeometry relative="1" as="geometry" />
        </mxCell>
        <mxCell id="w10MovmDUoHj3njt8c6F-33" value="Yes" style="edgeLabel;html=1;align=center;verticalAlign=middle;resizable=0;points=[];" vertex="1" connectable="0" parent="w10MovmDUoHj3njt8c6F-32">
          <mxGeometry x="-0.2667" y="-2" relative="1" as="geometry">
            <mxPoint as="offset" />
          </mxGeometry>
        </mxCell>
        <mxCell id="w10MovmDUoHj3njt8c6F-65" style="edgeStyle=orthogonalEdgeStyle;rounded=0;orthogonalLoop=1;jettySize=auto;html=1;entryX=0;entryY=0.5;entryDx=0;entryDy=0;" edge="1" parent="1" source="w10MovmDUoHj3njt8c6F-18" target="w10MovmDUoHj3njt8c6F-44">
          <mxGeometry relative="1" as="geometry">
            <Array as="points">
              <mxPoint x="10" y="2360" />
              <mxPoint x="10" y="3005" />
            </Array>
          </mxGeometry>
        </mxCell>
        <mxCell id="w10MovmDUoHj3njt8c6F-66" value="No" style="edgeLabel;html=1;align=center;verticalAlign=middle;resizable=0;points=[];" vertex="1" connectable="0" parent="w10MovmDUoHj3njt8c6F-65">
          <mxGeometry x="-0.8901" y="2" relative="1" as="geometry">
            <mxPoint x="1" as="offset" />
          </mxGeometry>
        </mxCell>
        <mxCell id="w10MovmDUoHj3njt8c6F-18" value="Credit Issued on&lt;br&gt;ITMO Platform?" style="rhombus;whiteSpace=wrap;html=1;fontSize=14;" vertex="1" parent="1">
          <mxGeometry x="70" y="2320" width="180" height="80" as="geometry" />
        </mxCell>
        <mxCell id="w10MovmDUoHj3njt8c6F-37" value="" style="edgeStyle=orthogonalEdgeStyle;rounded=0;orthogonalLoop=1;jettySize=auto;html=1;" edge="1" parent="1" source="w10MovmDUoHj3njt8c6F-31" target="w10MovmDUoHj3njt8c6F-36">
          <mxGeometry relative="1" as="geometry" />
        </mxCell>
        <mxCell id="w10MovmDUoHj3njt8c6F-40" value="Yes" style="edgeLabel;html=1;align=center;verticalAlign=middle;resizable=0;points=[];" vertex="1" connectable="0" parent="w10MovmDUoHj3njt8c6F-37">
          <mxGeometry x="-0.1333" y="-1" relative="1" as="geometry">
            <mxPoint as="offset" />
          </mxGeometry>
        </mxCell>
        <mxCell id="w10MovmDUoHj3njt8c6F-54" style="edgeStyle=orthogonalEdgeStyle;rounded=0;orthogonalLoop=1;jettySize=auto;html=1;entryX=1;entryY=0.5;entryDx=0;entryDy=0;" edge="1" parent="1" source="w10MovmDUoHj3njt8c6F-31" target="w10MovmDUoHj3njt8c6F-44">
          <mxGeometry relative="1" as="geometry">
            <Array as="points">
              <mxPoint x="10" y="2580" />
              <mxPoint x="10" y="3005" />
            </Array>
          </mxGeometry>
        </mxCell>
        <mxCell id="w10MovmDUoHj3njt8c6F-55" value="No" style="edgeLabel;html=1;align=center;verticalAlign=middle;resizable=0;points=[];" vertex="1" connectable="0" parent="w10MovmDUoHj3njt8c6F-54">
          <mxGeometry x="-0.8933" y="1" relative="1" as="geometry">
            <mxPoint x="-1" as="offset" />
          </mxGeometry>
        </mxCell>
        <mxCell id="w10MovmDUoHj3njt8c6F-31" value="Programme &lt;br&gt;Authorised&lt;br&gt;In Registry?" style="rhombus;whiteSpace=wrap;html=1;fontSize=14;" vertex="1" parent="1">
          <mxGeometry x="70" y="2540" width="180" height="80" as="geometry" />
        </mxCell>
        <mxCell id="w10MovmDUoHj3njt8c6F-39" value="" style="edgeStyle=orthogonalEdgeStyle;rounded=0;orthogonalLoop=1;jettySize=auto;html=1;" edge="1" parent="1" source="w10MovmDUoHj3njt8c6F-36" target="w10MovmDUoHj3njt8c6F-38">
          <mxGeometry relative="1" as="geometry" />
        </mxCell>
        <mxCell id="w10MovmDUoHj3njt8c6F-41" value="No" style="edgeLabel;html=1;align=center;verticalAlign=middle;resizable=0;points=[];" vertex="1" connectable="0" parent="w10MovmDUoHj3njt8c6F-39">
          <mxGeometry x="0.0963" relative="1" as="geometry">
            <mxPoint as="offset" />
          </mxGeometry>
        </mxCell>
        <mxCell id="w10MovmDUoHj3njt8c6F-56" style="edgeStyle=orthogonalEdgeStyle;rounded=0;orthogonalLoop=1;jettySize=auto;html=1;entryX=1;entryY=0.5;entryDx=0;entryDy=0;" edge="1" parent="1" source="w10MovmDUoHj3njt8c6F-36" target="w10MovmDUoHj3njt8c6F-44">
          <mxGeometry relative="1" as="geometry">
            <Array as="points">
              <mxPoint x="10" y="2775" />
              <mxPoint x="10" y="3005" />
            </Array>
          </mxGeometry>
        </mxCell>
        <mxCell id="w10MovmDUoHj3njt8c6F-57" value="Yes" style="edgeLabel;html=1;align=center;verticalAlign=middle;resizable=0;points=[];" vertex="1" connectable="0" parent="w10MovmDUoHj3njt8c6F-56">
          <mxGeometry x="-0.8924" y="4" relative="1" as="geometry">
            <mxPoint as="offset" />
          </mxGeometry>
        </mxCell>
        <mxCell id="w10MovmDUoHj3njt8c6F-36" value="Credit already &lt;br&gt;Issued &lt;br&gt;&amp;nbsp;on Registry&lt;br&gt;based on &lt;br&gt;ITMO Event?" style="rhombus;whiteSpace=wrap;html=1;fontSize=14;" vertex="1" parent="1">
          <mxGeometry x="65" y="2700" width="190" height="150" as="geometry" />
        </mxCell>
        <mxCell id="w10MovmDUoHj3njt8c6F-43" style="edgeStyle=orthogonalEdgeStyle;rounded=0;orthogonalLoop=1;jettySize=auto;html=1;entryX=0.5;entryY=0.5;entryDx=0;entryDy=-27.5;entryPerimeter=0;" edge="1" parent="1" source="w10MovmDUoHj3njt8c6F-38">
          <mxGeometry relative="1" as="geometry">
            <mxPoint x="160" y="2990" as="targetPoint" />
          </mxGeometry>
        </mxCell>
        <mxCell id="w10MovmDUoHj3njt8c6F-38" value="Issue credit" style="whiteSpace=wrap;html=1;fontSize=14;" vertex="1" parent="1">
          <mxGeometry x="100" y="2897" width="120" height="60" as="geometry" />
        </mxCell>
        <mxCell id="w10MovmDUoHj3njt8c6F-44" value="" style="ellipse;html=1;shape=endState;fillColor=#000000;strokeColor=#ff0000;" vertex="1" parent="1">
          <mxGeometry x="145" y="2990" width="30" height="30" as="geometry" />
        </mxCell>
        <mxCell id="w10MovmDUoHj3njt8c6F-45" value="" style="ellipse;html=1;shape=endState;fillColor=#000000;strokeColor=#ff0000;" vertex="1" parent="1">
          <mxGeometry x="685" y="2800" width="30" height="30" as="geometry" />
        </mxCell>
      </root>
    </mxGraphModel>
  </diagram>
</mxfile>
